PathFileType	4	(X/Y/Z)	Walk5.trc
DataRate	CameraRate	NumFrames	NumMarkers	Units	OrigDataRate	OrigDataStartFrame	OrigNumFrames
200.000000	200.000000	4	59	mm	200.000000	264	534
Frame#	Times		LBHD		C7		T10		RBack		LPSI		RPSI		RCAR		LElbowM		RElbowM		LUA1		RBHD		RFA1		LLFC		LCAR		RWRR		RFHD		LACR1		RTH3		CLAV		LWRR		RUA1		RTH2		RACR1		LWRU		RTB4		RTH4		RTB3		RToe		RMT1		RWRU		LFA1		RCAL		RMT5		LTH4		LTH1		RElbow		RLFC		RTB1		RTB2		STRN		LElbow		LFHD		LTH2		LTH3		RMMAL		RLMAL		LTB3		LTB2		RASI		LCAL		LMT1		LASI		LLMAL		LTB1		LMT5		RTH1		LTB4		LToe		LMMAL
			X1	Y1	Z1	X2	Y2	Z2	X3	Y3	Z3	X4	Y4	Z4	X5	Y5	Z5	X6	Y6	Z6	X7	Y7	Z7	X8	Y8	Z8	X9	Y9	Z9	X10	Y10	Z10	X11	Y11	Z11	X12	Y12	Z12	X13	Y13	Z13	X14	Y14	Z14	X15	Y15	Z15	X16	Y16	Z16	X17	Y17	Z17	X18	Y18	Z18	X19	Y19	Z19	X20	Y20	Z20	X21	Y21	Z21	X22	Y22	Z22	X23	Y23	Z23	X24	Y24	Z24	X25	Y25	Z25	X26	Y26	Z26	X27	Y27	Z27	X28	Y28	Z28	X29	Y29	Z29	X30	Y30	Z30	X31	Y31	Z31	X32	Y32	Z32	X33	Y33	Z33	X34	Y34	Z34	X35	Y35	Z35	X36	Y36	Z36	X37	Y37	Z37	X38	Y38	Z38	X39	Y39	Z39	X40	Y40	Z40	X41	Y41	Z41	X42	Y42	Z42	X43	Y43	Z43	X44	Y44	Z44	X45	Y45	Z45	X46	Y46	Z46	X47	Y47	Z47	X48	Y48	Z48	X49	Y49	Z49	X50	Y50	Z50	X51	Y51	Z51	X52	Y52	Z52	X53	Y53	Z53	X54	Y54	Z54	X55	Y55	Z55	X56	Y56	Z56	X57	Y57	Z57	X58	Y58	Z58	X59	Y59	Z59

264	1.32	-538.24	1500.4	-126.54	-573.3	1363.6	-60.102	-598.27	1091.7	-53.517	-606.19	1269.2	72.688	-613.3	903.16	-86.973	-627.62	908.25	11.89	-404.19	772.59	264.82	-549.34	976.74	-241.64	-556.76	976.99	157.77	-475.62	1123.1	-291.8	-544.6	1507.9	-3.5107	-496.16	893.65	245.69	-407.38	457.69	-151.13	-415.58	723.42	-343.32	-391.83	809.02	213.58	-364.64	1499.4	-20.398	-479.25	1296.1	-213.75	-492.74	554.56	158.78	-447.11	1288.4	-41.612	-414.72	761.95	-292.35	-499.45	1162.4	190.92	-421.71	656.8	151.54	-510.55	1312.3	100.87	-462.83	766.64	-348.27	-593.6	279.87	64.118	-496.19	649.54	171.41	-661.74	218.83	51.578	-710.63	47.2	38.334	-716.58	94.893	22.23	-458.55	790.19	238.75	-492.96	884.77	-333.71	-801.55	226.41	33.162	-751.83	102.39	69.624	-409.27	660.91	-186.46	-428.55	749.7	-212.6	-515.33	1019.9	234.25	-480.58	455.64	153.72	-517.62	333.23	76.399	-628.36	309.81	122.9	-381.48	1185.9	-37.115	-517.84	1006.6	-308.28	-367.38	1490.7	-96.601	-351.42	684.89	-147.8	-395.43	569.86	-161.33	-730.73	191.17	1.099	-759.79	194.61	75.184	-375.37	167	-53.427	-402.13	254.3	-129.62	-449.33	881.67	111.03	-462.33	32.902	-58.359	-309.27	51.499	-39.055	-646.6	849.57	-183.29	-416.89	65.646	-97.632	-371.36	349.12	-67.927	-328.16	34.165	-95.357	-497.66	737.69	188.13	-381.37	257.76	-61.957	-253.32	25.753	-41.168	-402.39	72.641	-18.726
265	1.325	-532.62	1500.9	-126.91	-567.47	1364.2	-60.372	-592.43	1092.4	-54.025	-600.52	1269.7	72.262	-607.82	904.01	-87.305	-622.01	908.9	11.51	-401.86	772.6	265.68	-542.95	977.09	-242.32	-552.8	977.78	157.71	-469.27	1123.6	-292.12	-538.83	1508.6	-3.8738	-492.82	894.28	245.85	-405.8	457.58	-151.12	-407.62	724.32	-343.21	-388.87	808.97	214.5	-358.88	1500.3	-20.986	-473.27	1296.7	-213.96	-483.6	555.41	158.87	-441.29	1289	-41.785	-407.04	762.93	-292.31	-494.53	1162.8	190.67	-413.6	658.36	151.76	-504.96	1312.9	100.66	-455.08	767.29	-348.29	-582.22	280.95	64.509	-488.09	650.39	171.45	-650.35	219.91	52.041	-697.3	48.412	42.031	-703.64	96.307	24.898	-455.88	790.58	239.26	-485.76	885.29	-333.98	-790.53	226.85	33.008	-739.38	104.5	71.924	-405.7	660.77	-186.57	-424.12	749.71	-212.81	-511.03	1020.6	234.15	-469.96	456.84	154.04	-506.28	334.34	76.894	-617.12	311.07	123.22	-375.76	1186.4	-37.191	-511.2	1007.1	-308.77	-361.71	1491.5	-97.166	-347.67	684.21	-147.9	-392.81	569.63	-161.35	-719.08	191.99	1.4949	-748.42	195.84	75.393	-375.03	166.89	-53.31	-401.5	254.23	-129.57	-442.6	882.28	110.7	-462.34	32.906	-58.266	-309.27	51.336	-38.835	-641.57	849.68	-183.55	-416.82	65.66	-97.468	-370.52	349	-67.899	-328.16	34.197	-95.265	-490.52	738.58	188.01	-380.71	257.66	-61.909	-253.25	25.568	-40.838	-402.36	72.593	-18.53
266	1.33	-527.01	1501.4	-127.23	-561.64	1364.8	-60.598	-586.62	1093	-54.509	-594.85	1270.2	71.875	-602.36	904.82	-87.633	-616.43	909.54	11.145	-399.57	772.56	266.59	-536.58	977.39	-243.01	-548.83	978.47	157.63	-462.94	1124.2	-292.41	-533.05	1509.2	-4.1879	-489.5	894.84	246.02	-404.24	457.48	-151.12	-399.61	725.22	-343.08	-385.92	808.86	215.48	-353.11	1501.1	-21.528	-467.3	1297.3	-214.14	-474.54	556.28	158.85	-435.47	1289.5	-41.93	-399.32	763.88	-292.26	-489.63	1163.2	190.42	-405.55	659.92	151.95	-499.36	1313.4	100.51	-447.28	767.93	-348.31	-570.71	281.95	64.809	-480.05	651.22	171.46	-638.74	220.76	52.43	-683.31	49.509	45.716	-690.21	97.557	27.575	-453.23	790.91	239.79	-478.55	885.79	-334.24	-779.32	226.82	32.889	-726.4	106.33	74.202	-402.11	660.63	-186.66	-419.66	749.71	-213	-506.75	1021.2	234.04	-459.32	458.09	154.27	-494.91	335.45	77.221	-605.74	312.12	123.49	-370.05	1186.9	-37.239	-504.57	1007.5	-309.24	-356.03	1492.2	-97.685	-343.96	683.54	-147.92	-390.2	569.41	-161.38	-707.18	192.48	1.8844	-736.75	196.73	75.665	-374.69	166.79	-53.215	-400.87	254.16	-129.54	-435.89	882.88	110.39	-462.35	32.911	-58.179	-309.26	51.183	-38.63	-636.18	849.78	-183.79	-416.74	65.672	-97.317	-369.68	348.89	-67.886	-328.16	34.223	-95.179	-483.43	739.42	187.92	-380.06	257.58	-61.883	-253.19	25.402	-40.532	-402.32	72.559	-18.352
267	1.335	-521.39	1501.9	-127.5	-555.81	1365.3	-60.787	-580.85	1093.6	-54.967	-589.18	1270.7	71.522	-596.94	905.6	-87.953	-610.89	910.18	10.797	-397.31	772.48	267.55	-530.21	977.63	-243.7	-544.84	979.08	157.53	-456.63	1124.6	-292.68	-527.28	1509.8	-4.4559	-486.2	895.33	246.2	-402.7	457.4	-151.15	-391.55	726.12	-342.95	-382.98	808.69	216.51	-347.34	1501.9	-22.02	-461.35	1297.8	-214.3	-465.53	557.14	158.7	-429.66	1290	-42.049	-391.57	764.81	-292.2	-484.76	1163.5	190.19	-397.55	661.46	152.13	-493.75	1313.8	100.4	-439.45	768.55	-348.32	-559.09	282.87	65.026	-472.07	652.03	171.42	-626.92	221.39	52.748	-668.68	50.488	49.365	-676.31	98.64	30.239	-450.6	791.18	240.34	-471.31	886.26	-334.5	-767.92	226.33	32.814	-712.94	107.86	76.435	-398.51	660.48	-186.75	-415.17	749.71	-213.19	-502.5	1021.7	233.93	-448.66	459.37	154.41	-483.51	336.54	77.386	-594.22	312.96	123.71	-364.36	1187.3	-37.263	-497.94	1008	-309.71	-350.35	1492.9	-98.157	-340.27	682.86	-147.88	-387.61	569.2	-161.42	-695.05	192.65	2.2739	-724.79	197.28	75.99	-374.36	166.69	-53.145	-400.24	254.1	-129.53	-429.22	883.48	110.1	-462.36	32.916	-58.099	-309.27	51.041	-38.443	-630.42	849.87	-184.02	-416.68	65.684	-97.184	-368.86	348.78	-67.891	-328.15	34.244	-95.103	-476.39	740.22	187.84	-379.41	257.51	-61.881	-253.14	25.256	-40.253	-402.29	72.539	-18.198
